Coordinates	
version=1	
nRows=616	
nColumns=2	
inDegrees=yes	
	
"Units are S.I. units (second, meters, Newtons, ...)"	
Angles are in degrees.	
	
endheader	
time	transX
0	-1.78885E-05
0.02	0.005103712
0.04	0.010161898
0.06	0.015156633
0.08	0.020087879
0.1	0.024955132
0.12	0.058718931
0.14	0.092610757
0.16	0.126630103
0.18	0.160776473
0.2	0.195046736
0.22	0.237886468
0.24	0.280899798
0.26	0.324083462
0.28	0.367434232
0.3	0.410948145
0.32	0.450912597
0.34	0.491007531
0.36	0.531229041
0.38	0.571573261
0.4	0.612036708
0.42	0.653836201
0.44	0.69575626
0.46	0.737793547
0.48	0.779944757
0.5	0.822206511
0.52	0.864276497
0.54	0.906448366
0.56	0.948718836
0.58	0.991084662
0.6	1.033542662
0.62	1.076143642
0.64	1.118830896
0.66	1.161601348
0.68	1.204451951
0.7	1.247379689
0.72	1.290279925
0.74	1.33325068
0.76	1.376289032
0.78	1.419392092
0.8	1.462557011
0.82	1.506250333
0.84	1.550003037
0.86	1.593812366
0.88	1.637675591
0.9	1.681589972
0.92	1.724031048
0.94	1.766507732
0.96	1.809017365
0.98	1.851557317
1	1.894125125
1.02	1.940504407
1.04	1.986931964
1.06	2.033405426
1.08	2.079922448
1.1	2.126480363
1.12	2.188800627
1.14	2.251261302
1.16	2.313859775
1.18	2.376593457
1.2	2.439458351
1.22	2.516215388
1.24	2.59318727
1.26	2.670369987
1.28	2.747759564
1.3	2.825350808
1.32	2.902441184
1.34	2.979718117
1.36	3.057176446
1.38	3.13481106
1.4	3.212616956
1.42	3.298534748
1.44	3.384666947
1.46	3.471008697
1.48	3.557555192
1.5	3.64430094
1.52	3.751764198
1.54	3.85955258
1.56	3.967660682
1.58	4.076083149
1.6	4.184812799
1.62	4.293067514
1.64	4.401609747
1.66	4.510432338
1.68	4.619528194
1.7	4.728890355
1.72	4.806728604
1.74	4.884607552
1.76	4.962520435
1.78	5.040460547
1.8	5.118424156
1.82	5.197202135
1.84	5.27600205
1.86	5.354820531
1.88	5.43365424
1.9	5.512499799
1.92	5.657545274
1.94	5.803037198
1.96	5.948972277
1.98	6.09534725
2	6.242152826
2.02	6.354442717
2.04	6.466910904
2.06	6.579547792
2.08	6.692343873
2.1	6.805292919
2.12	6.878112519
2.14	6.950804846
2.16	7.023364127
2.18	7.09578464
2.2	7.168064402
2.22	7.264900607
2.24	7.361757453
2.26	7.458633346
2.28	7.555526704
2.3	7.652433703
2.32	7.771333854
2.34	7.890386258
2.36	8.009586986
2.38	8.128932146
2.4	8.248415868
2.42	8.350911056
2.44	8.45341873
2.46	8.555932995
2.48	8.658448007
2.5	8.760959542
2.52	8.845762604
2.54	8.930436123
2.56	9.014976129
2.58	9.099378689
2.6	9.183641525
2.62	9.281838609
2.64	9.379985601
2.66	9.478080434
2.68	9.57612106
2.7	9.67410416
2.72	9.76726671
2.74	9.860333233
2.76	9.953300387
2.78	10.04616486
2.8	10.1389238
2.82	10.22626306
2.84	10.31345583
2.86	10.40049941
2.88	10.48739107
2.9	10.57412864
2.92	10.67448679
2.94	10.77477844
2.96	10.87500153
2.98	10.97515398
3	11.07523249
3.02	11.15810725
3.04	11.24078716
3.06	11.32326888
3.08	11.40554913
3.1	11.4876262
3.12	11.56828934
3.14	11.64873817
3.16	11.7289712
3.18	11.80898693
3.2	11.88878402
3.22	11.97878675
3.24	12.06863767
3.26	12.15833547
3.28	12.24787887
3.3	12.33726563
3.32	12.44663527
3.34	12.55597798
3.36	12.66529151
3.38	12.77457363
3.4	12.88382029
3.42	12.98900459
3.44	13.09411831
3.46	13.19915733
3.48	13.3041176
3.5	13.40899547
3.52	13.48392342
3.54	13.55856272
3.56	13.63290986
3.58	13.70696136
3.6	13.7807165
3.62	13.85857444
3.64	13.93616444
3.66	14.01348603
3.68	14.09053881
3.7	14.16732193
3.72	14.27704728
3.74	14.38672271
3.76	14.49634739
3.78	14.6059205
3.8	14.71543818
3.82	14.80205568
3.84	14.88845738
3.86	14.97463926
3.88	15.06059737
3.9	15.14632985
3.92	15.22285328
3.94	15.29908796
3.96	15.37503229
3.98	15.45068471
4	15.52604448
4.02	15.6284257
4.04	15.73069508
4.06	15.83285201
4.08	15.93489587
4.1	16.03682356
4.12	16.13743385
4.14	16.23791343
4.16	16.33825907
4.18	16.43846757
4.2	16.53853588
4.22	16.60943001
4.24	16.6799844
4.26	16.7501961
4.28	16.82006219
4.3	16.88958244
4.32	17.00697983
4.34	17.12435288
4.36	17.24170163
4.38	17.3590261
4.4	17.47632194
4.42	17.577048
4.44	17.67762579
4.46	17.77805065
4.48	17.878318
4.5	17.97842479
4.52	18.05436589
4.54	18.12998071
4.56	18.20526644
4.58	18.28022031
4.6	18.35484176
4.62	18.45658092
4.64	18.55816999
4.66	18.65960866
4.68	18.76089661
4.7	18.86203105
4.72	18.97296989
4.74	19.08381564
4.76	19.19456536
4.78	19.30521613
4.8	19.41576415
4.82	19.48033268
4.84	19.544485
4.86	19.60821737
4.88	19.67152605
4.9	19.73441157
4.92	19.8292276
4.94	19.92383792
4.96	20.01824343
4.98	20.11244504
5	20.20644068
5.02	20.29778669
5.04	20.3889059
5.06	20.47979604
5.08	20.57045489
5.1	20.66088046
5.12	20.71997663
5.14	20.77862838
5.16	20.83683384
5.18	20.89459113
5.2	20.95190127
5.22	21.0356281
5.24	21.11908936
5.26	21.20228633
5.28	21.28522024
5.3	21.36788991
5.32	21.46853653
5.34	21.56903773
5.36	21.66939214
5.38	21.76959841
5.4	21.86965352
5.42	21.92613665
5.44	21.98217298
5.46	22.03775946
5.48	22.09289307
5.5	22.1475748
5.52	22.29931908
5.54	22.45126424
5.56	22.60341163
5.58	22.7557626
5.6	22.90830956
5.62	22.98981163
5.64	23.07101829
5.66	23.15192138
5.68	23.2325128
5.7	23.31279106
5.72	23.35289948
5.74	23.39242726
5.76	23.43137355
5.78	23.46973752
5.8	23.50752201
5.82	23.55836536
5.84	23.6087264
5.86	23.65860826
5.88	23.70801403
5.9	23.75694555
5.92	23.80564054
5.94	23.85386628
5.96	23.90162449
5.98	23.94891684
6	23.99574502
6.02	24.06181646
6.04	24.12755841
6.06	24.19297253
6.08	24.25806046
6.1	24.32282203
6.12	24.37751111
6.14	24.43180825
6.16	24.48571318
6.18	24.53922561
6.2	24.59234616
6.22	24.59790841
6.24	24.60276575
6.26	24.60691892
6.28	24.61036862
6.3	24.61311992
6.32	24.67081001
6.34	24.7281833
6.36	24.78524516
6.38	24.84200086
6.4	24.89845059
6.42	24.96768942
6.44	25.03670907
6.46	25.10550927
6.48	25.17408977
6.5	25.24244915
6.52	25.26725061
6.54	25.29153904
6.56	25.31531297
6.58	25.33857095
6.6	25.36131554
6.62	25.41643911
6.64	25.4712743
6.66	25.52582397
6.68	25.58009099
6.7	25.63407518
6.72	25.66990207
6.74	25.70532616
6.76	25.74034704
6.78	25.77496433
6.8	25.80917928
6.82	25.83856064
6.84	25.86751294
6.86	25.89603758
6.88	25.92413599
6.9	25.95180998
6.92	25.9929532
6.94	26.03376831
6.96	26.07425715
6.98	26.11442156
7	26.15426211
7.02	26.2009913
7.04	26.24744563
7.06	26.29362556
7.08	26.33953158
7.1	26.38516351
7.12	26.42810676
7.14	26.47075939
7.16	26.51312122
7.18	26.55519205
7.2	26.59697194
7.22	26.63429089
7.24	26.67129128
7.26	26.70797321
7.28	26.7443368
7.3	26.78038256
7.32	26.82307418
7.34	26.8654955
7.36	26.90764708
7.38	26.94952951
7.4	26.99114272
7.42	27.10477683
7.44	27.21862347
7.46	27.33268257
7.48	27.44695404
7.5	27.56143124
7.52	27.63333586
7.54	27.70514676
7.56	27.77685689
7.58	27.84845924
7.6	27.91995082
7.62	27.95445038
7.64	27.9885881
7.66	28.02236145
7.68	28.05576791
7.7	28.08880839
7.72	28.15014219
7.74	28.21130346
7.76	28.27229344
7.78	28.33311334
7.8	28.39376175
7.82	28.46469747
7.84	28.53552824
7.86	28.60625249
7.88	28.67686866
7.9	28.74737429
7.92	28.83330807
7.94	28.91922988
7.96	29.00513723
7.98	29.09102769
8	29.17689741
8.02	29.23772074
8.04	29.29834874
8.06	29.35877759
8.08	29.4190035
8.1	29.47902502
8.12	29.51277063
8.14	29.54613561
8.16	29.57911878
8.18	29.61171897
8.2	29.64393745
8.22	29.69149767
8.24	29.7387839
8.26	29.78579759
8.28	29.83254022
8.3	29.87901179
8.32	29.94645076
8.34	30.01376009
8.36	30.08093968
8.38	30.14798947
8.4	30.21490746
8.42	30.27876635
8.44	30.34246966
8.46	30.40601531
8.48	30.46940121
8.5	30.53262559
8.52	30.59808653
8.54	30.66339852
8.56	30.7285599
8.58	30.79356902
8.6	30.85842403
8.62	30.87526816
8.64	30.89163551
8.66	30.90752428
8.68	30.92293272
8.7	30.93786345
8.72	30.97136494
8.74	31.00452171
8.76	31.03733678
8.78	31.06981313
8.8	31.10195198
8.82	31.18982977
8.84	31.27774604
8.86	31.36570187
8.88	31.45369832
8.9	31.54173133
8.92	31.61391066
8.94	31.68601175
8.96	31.75803021
8.98	31.8299617
9	31.90180337
9.02	31.90142394
9.04	31.90046851
9.06	31.89893447
9.08	31.89681924
9.1	31.89412689
9.12	31.89836467
9.14	31.90208455
9.16	31.9052911
9.18	31.90798887
9.2	31.9101817
9.22	31.9748042
9.24	32.03934878
9.26	32.10381914
9.28	32.16821896
9.3	32.23254615
9.32	32.28234463
9.34	32.331969
9.36	32.38141671
9.38	32.43068526
9.4	32.47977351
9.42	32.51029312
9.44	32.54050784
9.46	32.57041669
9.48	32.60001874
9.5	32.62931472
9.52	32.66174569
9.54	32.69389534
9.56	32.72576459
9.58	32.75735435
9.6	32.78866523
9.62	32.79980055
9.64	32.81052551
9.66	32.8208407
9.68	32.83074672
9.7	32.84024598
9.72	32.85131889
9.74	32.86200336
9.76	32.87230194
9.78	32.88221719
9.8	32.89175145
9.82	32.98433525
9.84	33.07709889
9.86	33.17004468
9.88	33.2631749
9.9	33.3564842
9.92	33.39150248
9.94	33.42629821
9.96	33.46086552
9.98	33.4951986
10	33.52929705
10.02	33.49946793
10.04	33.46897973
10.06	33.43783259
10.08	33.40602664
10.1	33.37356784
10.12	33.48206778
10.14	33.59087174
10.16	33.69998612
10.18	33.80941724
10.2	33.91915843
10.22	34.0628027
10.24	34.20696562
10.26	34.35163955
10.28	34.49681692
10.3	34.64248714
10.32	34.48504063
10.34	34.32604161
10.36	34.16547953
10.38	34.00334395
10.4	33.83965231
10.42	33.94598199
10.44	34.05260533
10.46	34.15954186
10.48	34.26681095
10.5	34.37440697
10.52	34.38371802
10.54	34.39268318
10.56	34.40129472
10.58	34.40954501
10.6	34.41743551
10.62	34.407314
10.64	34.39671951
10.66	34.3856543
10.68	34.37412063
10.7	34.36212237
10.72	34.45696489
10.74	34.5520661
10.76	34.64742996
10.78	34.74306037
10.8	34.83895143
10.82	34.88311346
10.84	34.92717618
10.86	34.97113295
10.88	35.01497721
10.9	35.05870721
10.92	35.06860589
10.94	35.07816297
10.96	35.08737721
10.98	35.09624737
11	35.10477536
11.02	35.10118992
11.04	35.0971881
11.06	35.09277204
11.08	35.08794389
11.1	35.08270685
11.12	35.08743889
11.14	35.09183773
11.16	35.09590664
11.18	35.09964882
11.2	35.10306654
11.22	35.11400775
11.24	35.12468111
11.26	35.13508878
11.28	35.14523289
11.3	35.15511484
11.32	35.17759221
11.34	35.1998958
11.36	35.22202695
11.38	35.24398699
11.4	35.26577608
11.42	35.28111168
11.44	35.29623456
11.46	35.31114479
11.48	35.32584244
11.5	35.34032818
11.52	35.31143921
11.54	35.28205201
11.56	35.25216729
11.58	35.22178579
11.6	35.1909122
11.62	35.18005251
11.64	35.16884735
11.66	35.15730168
11.68	35.14542041
11.7	35.13320653
11.72	35.13913579
11.74	35.14486123
11.76	35.15038564
11.78	35.15571178
11.8	35.16084072
11.82	35.1455755
11.84	35.12998025
11.86	35.11405591
11.88	35.09780337
11.9	35.08122542
11.92	35.05233859
11.94	35.02305225
11.96	34.99336928
11.98	34.96329255
12	34.93282603
12.02	34.92593429
12.04	34.91882052
12.06	34.91148871
12.08	34.90394281
12.1	34.89618456
12.12	34.89664616
12.14	34.8969547
12.16	34.89711171
12.18	34.8971187
12.2	34.89697642
12.22	34.86139849
12.24	34.82543742
12.26	34.78909388
12.28	34.75236858
12.3	34.71526544
